<svg width="512" height="512" viewBox="0 0 512 512" fill="none" xmlns="http://www.w3.org/2000/svg">
<g clip-path="url(#clip0_180_18)">
<rect width="512" height="512" fill="#27B8ED"/>
<path d="M458.331 390.209C459.606 383.394 453.834 358.832 449.39 345.335L393.637 344.359L402.372 393.898C420.494 395.508 457.056 397.025 458.331 390.209Z" fill="#232222"/>
<path d="M332.277 332.121C307.774 328.157 349.243 360.217 343.031 383.75L367.285 384.228C377.595 386.5 400.439 389.288 409.338 382.268C412.677 381.288 438.008 357.62 448.278 348.02C461.409 335.745 362.905 337.077 332.277 332.121Z" fill="#292929"/>
<path d="M94.4747 472.865L59.5358 568.189C56.2794 577.074 68.6606 583.614 75.2583 585.774C205.114 586.699 469.601 587.995 488.701 585.774C507.801 583.552 512.188 565.722 511.994 557.084V387.721L464.827 375.69L354.769 347H277.321L187.645 435.846L94.4747 472.865Z" fill="#303030"/>
<path d="M134.001 201.659L184.645 272L387.223 239.445L414.001 170.267L349.386 78.9973L262.65 54L159.614 85.392L134.001 201.659Z" fill="#3D2514"/>
<path d="M248.852 373.387L266.891 445.594L355.923 452L391 356.5L368.143 308.167L392.001 227.224L361.553 168.488L315 161.5L224.222 134.131L177.67 140.536L154.001 206.842L199.972 308.167L248.852 373.387Z" fill="#EDCEBC"/>
</g>
<defs>
<clipPath id="clip0_180_18">
<rect width="512" height="512" fill="white"/>
</clipPath>
</defs>
</svg>
